<svg xmlns="http://www.w3.org/2000/svg" data-name="Layer 1" viewBox="0 0 512 512"><defs><linearGradient id="a" x1="256" x2="256" y1="483.333" y2="11.039" gradientTransform="matrix(1 0 0 -1 0 514)" gradientUnits="userSpaceOnUse"><stop offset="0" stop-color="#00efd1"/><stop offset="1" stop-color="#00acea"/></linearGradient></defs><path fill="url(#a)" d="M419.451,88.708H384.646V63a10,10,0,0,0-20,0V88.708H151.817V63a10,10,0,0,0-20,0V88.708H92.549a50.057,50.057,0,0,0-50,50V409a50.057,50.057,0,0,0,50,50h326.9a50.057,50.057,0,0,0,50-50V138.707A50.056,50.056,0,0,0,419.451,88.708Zm30,320.292a30.034,30.034,0,0,1-30,30H92.549a30.034,30.034,0,0,1-30-30V220.292h386.9V409ZM62.549,200.292V138.707a30.034,30.034,0,0,1,30-30h39.269v25.707a10,10,0,0,0,20,0V108.707H364.647v25.707a10,10,0,0,0,20,0V108.707h34.805a30.034,30.034,0,0,1,30,30v61.585Z"/></svg>