<svg xmlns="http://www.w3.org/2000/svg" data-name="Layer 1" viewBox="0 0 512 512"><defs><linearGradient id="a" x1="256" x2="256" y1="28" y2="484.281" gradientUnits="userSpaceOnUse"><stop offset="0" stop-color="#00efd1"/><stop offset="1" stop-color="#00acea"/></linearGradient></defs><path fill="url(#a)" d="M261.519,40.488a8,8,0,0,0-10.482-.007L39.263,223.876A8.052,8.052,0,0,0,44.5,238H84V462.471a7.961,7.961,0,0,0,8.111,7.764L415.8,473h.074a7.941,7.941,0,0,0,5.695-2.081A7.536,7.536,0,0,0,424,465.471V238h43.5a8.041,8.041,0,0,0,5.245-14.1ZM302,456.417l-90-.841V354h90Zm106,.979-90-.831V345.882A7.724,7.724,0,0,0,310.209,338H203.514c-4.418,0-7.514,3.463-7.514,7.882V455.427l-96-.882V238H408ZM65.958,222,256.267,57.194,446.084,222Z"/></svg>