<svg xmlns="http://www.w3.org/2000/svg" data-name="Layer 1" viewBox="0 0 512 512"><path fill="#00efd1" d="M403.062,55.086H108.938a10,10,0,0,0-10,10V446.914a10,10,0,0,0,16.779,7.351l34.791-32.086a9.963,9.963,0,0,1,13.438-.109l22.807,20.354a29.954,29.954,0,0,0,40.072-.107L249.3,422.039a9.975,9.975,0,0,1,13.4,0l22.477,20.278a29.955,29.955,0,0,0,40.071.107l22.807-20.354a9.964,9.964,0,0,1,13.438.11l34.791,32.085a10,10,0,0,0,16.779-7.352V65.086A10,10,0,0,0,403.062,55.086Zm-10,369-18.011-16.61a29.89,29.89,0,0,0-40.314-.33L311.93,427.5a9.986,9.986,0,0,1-13.357-.035L276.1,407.19a29.924,29.924,0,0,0-40.192,0l-22.477,20.278a9.982,9.982,0,0,1-13.357.035l-22.807-20.354a29.894,29.894,0,0,0-40.314.329l-18.012,16.611v-349H393.062v349Z"/><path fill="#00acea" d="M317.5 190.865H189.153a10 10 0 0 0 0 20H317.5a10 10 0 0 0 0-20zM317.5 260.386H189.153a10 10 0 1 0 0 20H317.5a10 10 0 0 0 0-20z"/></svg>